<svg width="364" height="24" viewBox="0 0 364 24" fill="none" xmlns="http://www.w3.org/2000/svg">
<rect x="1" y="1" width="362" height="22" rx="11" fill="url(#paint0_linear_13_1622)"/>
<rect x="0.5" y="0.5" width="363" height="23" rx="11.5" stroke="white" stroke-opacity="0.4"/>
<path d="M20.5268 16V14.52H22.0668V10.81L20.5268 11.91V10.11L22.0768 9H23.8768V14.52H25.1268V16H20.5268Z" fill="white"/>
<path d="M55.2982 16V14.72L57.6182 12.8C57.9182 12.5533 58.1616 12.3367 58.3482 12.15C58.5416 11.9567 58.6782 11.78 58.7582 11.62C58.8449 11.4533 58.8882 11.28 58.8882 11.1C58.8882 10.8667 58.8249 10.6867 58.6982 10.56C58.5716 10.4333 58.3882 10.37 58.1482 10.37C57.8349 10.37 57.5982 10.47 57.4382 10.67C57.2782 10.87 57.1982 11.1633 57.1982 11.55H55.3982C55.3982 10.9767 55.4982 10.4933 55.6982 10.1C55.9049 9.7 56.2116 9.39667 56.6182 9.19C57.0249 8.97667 57.5349 8.87 58.1482 8.87C58.7216 8.87 59.1949 8.96667 59.5682 9.16C59.9482 9.34667 60.2316 9.60667 60.4182 9.94C60.6049 10.2733 60.6982 10.66 60.6982 11.1C60.6982 11.42 60.6249 11.7233 60.4782 12.01C60.3316 12.2967 60.1316 12.57 59.8782 12.83C59.6316 13.09 59.3449 13.3467 59.0182 13.6L57.8082 14.52H60.7982V16H55.2982Z" fill="white"/>
<path d="M93.4482 16.13C92.8549 16.13 92.3549 16.0233 91.9482 15.81C91.5482 15.5967 91.2482 15.3033 91.0482 14.93C90.8482 14.5567 90.7482 14.13 90.7482 13.65H92.5482C92.5482 13.9767 92.6216 14.2233 92.7682 14.39C92.9216 14.55 93.1682 14.63 93.5082 14.63C93.7882 14.63 93.9949 14.56 94.1282 14.42C94.2682 14.2733 94.3382 14.08 94.3382 13.84C94.3382 13.5867 94.2682 13.3933 94.1282 13.26C93.9882 13.1267 93.7616 13.06 93.4482 13.06H92.8582V11.74H93.4482C93.7149 11.74 93.9116 11.68 94.0382 11.56C94.1716 11.44 94.2382 11.2633 94.2382 11.03C94.2382 10.8233 94.1749 10.6633 94.0482 10.55C93.9216 10.43 93.7416 10.37 93.5082 10.37C93.2149 10.37 92.9982 10.4433 92.8582 10.59C92.7182 10.7367 92.6482 10.9567 92.6482 11.25H90.8482C90.8482 10.75 90.9482 10.3233 91.1482 9.97C91.3482 9.61667 91.6416 9.34667 92.0282 9.16C92.4216 8.96667 92.8949 8.87 93.4482 8.87C94.0016 8.87 94.4716 8.95333 94.8582 9.12C95.2449 9.28 95.5382 9.50667 95.7382 9.8C95.9449 10.0933 96.0482 10.43 96.0482 10.81C96.0482 11.19 95.9416 11.5133 95.7282 11.78C95.5149 12.0467 95.2282 12.2367 94.8682 12.35C95.2882 12.4633 95.6049 12.6567 95.8182 12.93C96.0382 13.2033 96.1482 13.56 96.1482 14C96.1482 14.42 96.0382 14.7933 95.8182 15.12C95.5982 15.44 95.2849 15.69 94.8782 15.87C94.4782 16.0433 94.0016 16.13 93.4482 16.13Z" fill="white"/>
<path d="M129.115 16V14.64H125.975V13.41L129.235 9H130.915V13.16H131.675V14.64H130.915V16H129.115ZM127.585 13.16H129.115V10.99L127.585 13.16Z" fill="white"/>
<path d="M164.298 16.13C163.818 16.13 163.415 16.07 163.088 15.95C162.762 15.83 162.495 15.6633 162.288 15.45C162.088 15.23 161.942 14.9867 161.848 14.72C161.755 14.4467 161.705 14.1567 161.698 13.85H163.438C163.452 14.1167 163.535 14.33 163.688 14.49C163.842 14.65 164.045 14.73 164.298 14.73C164.612 14.73 164.835 14.6333 164.968 14.44C165.102 14.2467 165.168 13.97 165.168 13.61C165.168 13.3567 165.132 13.1567 165.058 13.01C164.985 12.8567 164.882 12.75 164.748 12.69C164.622 12.6233 164.472 12.59 164.298 12.59C164.125 12.59 163.968 12.6267 163.828 12.7C163.688 12.7667 163.572 12.8667 163.478 13H161.848V9H166.608V10.47H163.578V11.45C163.718 11.3433 163.882 11.2667 164.068 11.22C164.262 11.1667 164.482 11.14 164.728 11.14C165.182 11.14 165.575 11.2333 165.908 11.42C166.248 11.6 166.515 11.8733 166.708 12.24C166.902 12.6 166.998 13.05 166.998 13.59C166.998 14.1033 166.888 14.5533 166.668 14.94C166.448 15.32 166.135 15.6133 165.728 15.82C165.328 16.0267 164.852 16.13 164.298 16.13Z" fill="white"/>
<path d="M199.826 16.13C198.9 16.13 198.193 15.8667 197.706 15.34C197.22 14.8067 196.976 13.9433 196.976 12.75V12.55C196.976 11.67 197.1 10.96 197.346 10.42C197.593 9.88 197.936 9.48667 198.376 9.24C198.823 8.99333 199.34 8.87 199.926 8.87C200.393 8.87 200.796 8.93333 201.136 9.06C201.476 9.18 201.75 9.37667 201.956 9.65C202.163 9.92333 202.286 10.29 202.326 10.75H200.626C200.58 10.59 200.493 10.47 200.366 10.39C200.246 10.31 200.083 10.27 199.876 10.27C199.65 10.27 199.45 10.3233 199.276 10.43C199.103 10.5367 198.966 10.7167 198.866 10.97C198.766 11.2233 198.71 11.5833 198.696 12.05C198.856 11.8167 199.08 11.6533 199.366 11.56C199.653 11.4667 199.96 11.42 200.286 11.42C200.753 11.42 201.15 11.51 201.476 11.69C201.803 11.87 202.05 12.1233 202.216 12.45C202.39 12.7767 202.476 13.16 202.476 13.6V13.71C202.476 14.1967 202.366 14.6233 202.146 14.99C201.933 15.3567 201.626 15.64 201.226 15.84C200.826 16.0333 200.36 16.13 199.826 16.13ZM199.726 14.73C200.02 14.73 200.25 14.6467 200.416 14.48C200.583 14.3067 200.666 14.07 200.666 13.77V13.67C200.666 13.3767 200.583 13.1467 200.416 12.98C200.25 12.8067 200.02 12.72 199.726 12.72C199.433 12.72 199.2 12.8067 199.026 12.98C198.86 13.1467 198.776 13.3767 198.776 13.67V13.77C198.776 14.07 198.86 14.3067 199.026 14.48C199.2 14.6467 199.433 14.73 199.726 14.73Z" fill="white"/>
<path d="M233.475 16L235.755 10.47H232.575V9H237.575V10.27L235.375 16H233.475Z" fill="white"/>
<path d="M270.502 16.13C269.928 16.13 269.432 16.0467 269.012 15.88C268.592 15.7067 268.268 15.4667 268.042 15.16C267.815 14.8467 267.702 14.4767 267.702 14.05C267.702 13.6633 267.818 13.3167 268.052 13.01C268.285 12.7033 268.632 12.49 269.092 12.37C268.745 12.25 268.458 12.0567 268.232 11.79C268.012 11.5233 267.902 11.1967 267.902 10.81C267.902 10.4233 268.002 10.0867 268.202 9.8C268.408 9.50667 268.705 9.28 269.092 9.12C269.485 8.95333 269.955 8.87 270.502 8.87C271.055 8.87 271.525 8.95333 271.912 9.12C272.298 9.28 272.592 9.50667 272.792 9.8C272.998 10.0867 273.102 10.4233 273.102 10.81C273.102 11.19 272.992 11.5133 272.772 11.78C272.552 12.0467 272.265 12.2433 271.912 12.37C272.372 12.5033 272.718 12.7133 272.952 13C273.185 13.2867 273.302 13.6367 273.302 14.05C273.302 14.4767 273.188 14.8467 272.962 15.16C272.735 15.4667 272.412 15.7067 271.992 15.88C271.572 16.0467 271.075 16.13 270.502 16.13ZM270.502 14.75C270.742 14.75 270.942 14.72 271.102 14.66C271.268 14.5933 271.392 14.5 271.472 14.38C271.558 14.2533 271.602 14.1067 271.602 13.94C271.602 13.66 271.492 13.4467 271.272 13.3C271.058 13.1467 270.802 13.0433 270.502 12.99C270.208 13.0433 269.952 13.1467 269.732 13.3C269.512 13.4533 269.402 13.6667 269.402 13.94C269.402 14.1067 269.445 14.2533 269.532 14.38C269.625 14.5 269.752 14.5933 269.912 14.66C270.078 14.72 270.275 14.75 270.502 14.75ZM270.502 11.81C270.755 11.7633 270.968 11.68 271.142 11.56C271.315 11.4333 271.402 11.24 271.402 10.98C271.402 10.74 271.322 10.56 271.162 10.44C271.002 10.3133 270.782 10.25 270.502 10.25C270.222 10.25 270.002 10.31 269.842 10.43C269.682 10.55 269.602 10.7333 269.602 10.98C269.602 11.24 269.692 11.43 269.872 11.55C270.052 11.67 270.262 11.7567 270.502 11.81Z" fill="white"/>
<path d="M305.726 16.13C305.253 16.13 304.839 16.0667 304.486 15.94C304.139 15.8133 303.863 15.6133 303.656 15.34C303.456 15.06 303.329 14.6967 303.276 14.25H304.976C305.023 14.4033 305.109 14.5233 305.236 14.61C305.363 14.69 305.543 14.73 305.776 14.73C305.996 14.73 306.186 14.6767 306.346 14.57C306.513 14.4633 306.643 14.2833 306.736 14.03C306.836 13.7767 306.893 13.4167 306.906 12.95C306.746 13.1833 306.523 13.3467 306.236 13.44C305.949 13.5333 305.646 13.58 305.326 13.58C304.859 13.58 304.459 13.49 304.126 13.31C303.799 13.13 303.549 12.8767 303.376 12.55C303.209 12.2167 303.126 11.83 303.126 11.39V11.29C303.126 10.8033 303.236 10.3767 303.456 10.01C303.676 9.64333 303.986 9.36333 304.386 9.17C304.786 8.97 305.249 8.87 305.776 8.87C306.396 8.87 306.916 8.98333 307.336 9.21C307.763 9.43 308.083 9.79 308.296 10.29C308.516 10.7833 308.626 11.4367 308.626 12.25V12.45C308.626 13.3367 308.503 14.05 308.256 14.59C308.016 15.1233 307.676 15.5133 307.236 15.76C306.803 16.0067 306.299 16.13 305.726 16.13ZM305.876 12.28C306.169 12.28 306.399 12.1967 306.566 12.03C306.739 11.8567 306.826 11.62 306.826 11.32V11.23C306.826 10.9433 306.736 10.7133 306.556 10.54C306.383 10.36 306.156 10.27 305.876 10.27C305.583 10.27 305.349 10.3567 305.176 10.53C305.009 10.6967 304.926 10.9267 304.926 11.22V11.32C304.926 11.62 305.009 11.8567 305.176 12.03C305.349 12.1967 305.583 12.28 305.876 12.28Z" fill="white"/>
<path d="M335.875 16V14.52H337.415V10.81L335.875 11.91V10.11L337.425 9H339.225V14.52H340.475V16H335.875ZM343.871 16.13C343.478 16.13 343.111 16.0667 342.771 15.94C342.431 15.8067 342.135 15.5967 341.881 15.31C341.628 15.0233 341.428 14.65 341.281 14.19C341.141 13.7233 341.071 13.16 341.071 12.5V12.3C341.071 11.6867 341.141 11.1633 341.281 10.73C341.428 10.2967 341.628 9.94333 341.881 9.67C342.135 9.39667 342.431 9.19667 342.771 9.07C343.111 8.93667 343.478 8.87 343.871 8.87C344.265 8.87 344.631 8.93667 344.971 9.07C345.311 9.19667 345.608 9.39667 345.861 9.67C346.115 9.94333 346.311 10.2967 346.451 10.73C346.598 11.1633 346.671 11.6867 346.671 12.3V12.5C346.671 13.16 346.598 13.7233 346.451 14.19C346.311 14.65 346.115 15.0233 345.861 15.31C345.608 15.5967 345.311 15.8067 344.971 15.94C344.631 16.0667 344.265 16.13 343.871 16.13ZM343.871 14.65C344.005 14.65 344.131 14.6167 344.251 14.55C344.371 14.4833 344.475 14.37 344.561 14.21C344.655 14.0433 344.728 13.8233 344.781 13.55C344.835 13.27 344.861 12.92 344.861 12.5V12.3C344.861 11.8067 344.818 11.42 344.731 11.14C344.645 10.8533 344.525 10.65 344.371 10.53C344.218 10.41 344.051 10.35 343.871 10.35C343.691 10.35 343.525 10.41 343.371 10.53C343.225 10.65 343.105 10.8533 343.011 11.14C342.918 11.42 342.871 11.8067 342.871 12.3V12.5C342.871 12.92 342.898 13.27 342.951 13.55C343.005 13.8233 343.078 14.0433 343.171 14.21C343.271 14.37 343.378 14.4833 343.491 14.55C343.611 14.6167 343.738 14.65 343.871 14.65Z" fill="white"/>
<defs>
<linearGradient id="paint0_linear_13_1622" x1="0.999999" y1="15.6666" x2="362.994" y2="17.7177" gradientUnits="userSpaceOnUse">
<stop stop-color="#30B502"/>
<stop offset="0.119792" stop-color="#30B502"/>
<stop offset="0.244792" stop-color="#30B502"/>
<stop offset="0.348958" stop-color="#FFDE30"/>
<stop offset="0.458333" stop-color="#FFDE30"/>
<stop offset="0.572917" stop-color="#FFDE30"/>
<stop offset="0.677083" stop-color="#FF0000"/>
<stop offset="0.755208" stop-color="#FF0000"/>
<stop offset="0.864583" stop-color="#FF0000"/>
<stop offset="1" stop-color="#FF0000"/>
</linearGradient>
</defs>
</svg>
