<svg width="23" height="22" viewBox="0 0 23 22" fill="none" xmlns="http://www.w3.org/2000/svg">
<path d="M19.9333 19.4336L16.7065 16.2069" stroke="black" stroke-width="1.375" stroke-linecap="round" stroke-linejoin="round"/>
<path d="M10.4449 11.2019L12.9108 18.7919C13.1766 19.5986 14.2583 19.7269 14.7074 19.0119C15.1933 18.2328 15.6699 17.4536 16.1557 16.6653C16.4124 16.2528 16.7516 15.9044 17.1641 15.6569C17.9433 15.1711 18.7224 14.6944 19.5108 14.2086C20.2349 13.7594 20.0974 12.6778 19.2908 12.4119L11.7008 9.94615C10.9308 9.69865 10.1974 10.4319 10.4449 11.2019Z" stroke="black" stroke-width="1.375" stroke-linecap="round" stroke-linejoin="round"/>
<path d="M6.45702 5.95861L5.28369 4.78528" stroke="black" stroke-width="1.375" stroke-linecap="round" stroke-linejoin="round"/>
<path d="M4.6787 10.1752H3.01953" stroke="black" stroke-width="1.375" stroke-linecap="round" stroke-linejoin="round"/>
<path d="M6.40136 14.4192L5.22803 15.5925" stroke="black" stroke-width="1.375" stroke-linecap="round" stroke-linejoin="round"/>
<path d="M10.6733 4.18004V2.52087" stroke="black" stroke-width="1.375" stroke-linecap="round" stroke-linejoin="round"/>
<path d="M14.9189 5.90319L16.0922 4.72986" stroke="black" stroke-width="1.375" stroke-linecap="round" stroke-linejoin="round"/>
</svg>
